<?xml version="1.0" encoding="UTF-8"?>
<svg xmlns="http://www.w3.org/2000/svg" xmlns:xlink="http://www.w3.org/1999/xlink" width="504" height="360" viewBox="0 0 504 360">
<defs>
<clipPath id="clip-0">
<path clip-rule="nonzero" d="M 38.164062 5.480469 L 498.519531 5.480469 L 498.519531 329.121094 L 38.164062 329.121094 Z M 38.164062 5.480469 "/>
</clipPath>
<clipPath id="clip-1">
<path clip-rule="nonzero" d="M 38.164062 5.480469 L 498.519531 5.480469 L 498.519531 329.121094 L 38.164062 329.121094 Z M 38.164062 5.480469 "/>
</clipPath>
</defs>
<rect x="-50.4" y="-36" width="604.8" height="432" fill="rgb(100%, 100%, 100%)" fill-opacity="1"/>
<rect x="-50.4" y="-36" width="604.8" height="432" fill="rgb(100%, 100%, 100%)" fill-opacity="1"/>
<path fill="none" stroke-width="1.066978" stroke-linecap="round" stroke-linejoin="round" stroke="rgb(100%, 100%, 100%)" stroke-opacity="1" stroke-miterlimit="10" d="M 0 360 L 504 360 L 504 0 L 0 0 Z M 0 360 "/>
<g clip-path="url(#clip-0)">
<path fill-rule="nonzero" fill="rgb(100%, 100%, 100%)" fill-opacity="1" d="M 38.164062 329.117188 L 498.519531 329.117188 L 498.519531 5.476562 L 38.164062 5.476562 Z M 38.164062 329.117188 "/>
</g>
<path fill-rule="nonzero" fill="rgb(0%, 0%, 0%)" fill-opacity="1" stroke-width="0.708661" stroke-linecap="round" stroke-linejoin="round" stroke="rgb(0%, 0%, 0%)" stroke-opacity="1" stroke-miterlimit="10" d="M 61.046875 268.792969 C 61.046875 271.398438 57.136719 271.398438 57.136719 268.792969 C 57.136719 266.1875 61.046875 266.1875 61.046875 268.792969 "/>
<path fill-rule="nonzero" fill="rgb(0%, 0%, 0%)" fill-opacity="1" stroke-width="0.708661" stroke-linecap="round" stroke-linejoin="round" stroke="rgb(0%, 0%, 0%)" stroke-opacity="1" stroke-miterlimit="10" d="M 200.546875 314.40625 C 200.546875 317.015625 196.636719 317.015625 196.636719 314.40625 C 196.636719 311.800781 200.546875 311.800781 200.546875 314.40625 "/>
<path fill-rule="nonzero" fill="rgb(0%, 0%, 0%)" fill-opacity="1" stroke-width="0.708661" stroke-linecap="round" stroke-linejoin="round" stroke="rgb(0%, 0%, 0%)" stroke-opacity="1" stroke-miterlimit="10" d="M 340.046875 20.191406 C 340.046875 22.796875 336.140625 22.796875 336.140625 20.191406 C 336.140625 17.582031 340.046875 17.582031 340.046875 20.191406 "/>
<path fill-rule="nonzero" fill="rgb(0%, 0%, 0%)" fill-opacity="1" stroke-width="0.708661" stroke-linecap="round" stroke-linejoin="round" stroke="rgb(0%, 0%, 0%)" stroke-opacity="1" stroke-miterlimit="10" d="M 479.550781 276.058594 C 479.550781 278.667969 475.640625 278.667969 475.640625 276.058594 C 475.640625 273.453125 479.550781 273.453125 479.550781 276.058594 "/>
<g clip-path="url(#clip-1)">
<path fill="none" stroke-width="1.066978" stroke-linecap="round" stroke-linejoin="round" stroke="rgb(0%, 0%, 0%)" stroke-opacity="1" stroke-miterlimit="10" d="M 38.164062 329.117188 L 498.519531 329.117188 L 498.519531 5.476562 L 38.164062 5.476562 Z M 38.164062 329.117188 "/>
</g>
<path fill="none" stroke-width="1.066978" stroke-linecap="butt" stroke-linejoin="round" stroke="rgb(0%, 0%, 0%)" stroke-opacity="1" stroke-miterlimit="10" d="M 38.164062 329.117188 L 38.164062 5.480469 "/>
<path fill-rule="nonzero" fill="rgb(30.196078%, 30.196078%, 30.196078%)" fill-opacity="1" d="M 18.460938 235.195312 L 18.460938 234.507812 L 20.609375 234.507812 L 20.609375 235.195312 Z M 18.460938 235.195312 "/>
<path fill-rule="nonzero" fill="rgb(30.196078%, 30.196078%, 30.196078%)" fill-opacity="1" d="M 25.550781 234.160156 L 25.550781 234.332031 L 25.542969 234.5 L 25.535156 234.660156 L 25.523438 234.8125 L 25.507812 234.964844 L 25.492188 235.109375 L 25.46875 235.246094 L 25.445312 235.378906 L 25.414062 235.507812 L 25.382812 235.628906 L 25.347656 235.746094 L 25.3125 235.859375 L 25.234375 236.070312 L 25.1875 236.167969 L 25.140625 236.261719 L 25.09375 236.351562 L 25.042969 236.4375 L 24.933594 236.59375 L 24.875 236.664062 L 24.8125 236.730469 L 24.753906 236.792969 L 24.6875 236.851562 L 24.621094 236.90625 L 24.554688 236.957031 L 24.484375 237.003906 L 24.414062 237.046875 L 24.335938 237.082031 L 24.261719 237.117188 L 24.183594 237.148438 L 24.105469 237.175781 L 24.023438 237.199219 L 23.945312 237.21875 L 23.863281 237.234375 L 23.777344 237.25 L 23.695312 237.261719 L 23.609375 237.269531 L 23.4375 237.277344 L 23.347656 237.273438 L 23.261719 237.269531 L 23.175781 237.261719 L 23.09375 237.25 L 23.007812 237.234375 L 22.925781 237.21875 L 22.847656 237.199219 L 22.765625 237.175781 L 22.6875 237.148438 L 22.613281 237.117188 L 22.535156 237.082031 L 22.460938 237.046875 L 22.390625 237.003906 L 22.320312 236.957031 L 22.253906 236.90625 L 22.1875 236.851562 L 22.125 236.792969 L 22.0625 236.730469 L 22.003906 236.664062 L 21.945312 236.59375 L 21.890625 236.515625 L 21.839844 236.4375 L 21.789062 236.351562 L 21.742188 236.265625 L 21.695312 236.171875 L 21.652344 236.074219 L 21.574219 235.863281 L 21.535156 235.75 L 21.503906 235.632812 L 21.472656 235.511719 L 21.445312 235.382812 L 21.421875 235.25 L 21.402344 235.113281 L 21.382812 234.96875 L 21.371094 234.816406 L 21.359375 234.660156 L 21.351562 234.5 L 21.34375 234.332031 L 21.34375 233.980469 L 21.351562 233.808594 L 21.359375 233.640625 L 21.371094 233.480469 L 21.382812 233.324219 L 21.402344 233.175781 L 21.421875 233.035156 L 21.445312 232.898438 L 21.472656 232.769531 L 21.503906 232.648438 L 21.535156 232.53125 L 21.574219 232.417969 L 21.613281 232.308594 L 21.652344 232.207031 L 21.695312 232.109375 L 21.742188 232.015625 L 21.789062 231.925781 L 21.839844 231.84375 L 21.894531 231.761719 L 21.949219 231.691406 L 22.007812 231.621094 L 22.066406 231.554688 L 22.191406 231.4375 L 22.257812 231.386719 L 22.328125 231.339844 L 22.398438 231.296875 L 22.46875 231.257812 L 22.542969 231.222656 L 22.621094 231.191406 L 22.699219 231.164062 L 22.777344 231.140625 L 22.859375 231.117188 L 22.941406 231.097656 L 23.023438 231.082031 L 23.195312 231.058594 L 23.28125 231.050781 L 23.371094 231.046875 L 23.546875 231.046875 L 23.632812 231.050781 L 23.71875 231.058594 L 23.882812 231.082031 L 23.964844 231.097656 L 24.042969 231.117188 L 24.199219 231.164062 L 24.273438 231.191406 L 24.351562 231.222656 L 24.421875 231.257812 L 24.496094 231.296875 L 24.566406 231.339844 L 24.632812 231.386719 L 24.699219 231.4375 L 24.824219 231.554688 L 24.882812 231.621094 L 24.941406 231.691406 L 24.996094 231.761719 L 25.050781 231.84375 L 25.101562 231.925781 L 25.148438 232.015625 L 25.195312 232.109375 L 25.238281 232.207031 L 25.277344 232.308594 L 25.316406 232.417969 L 25.351562 232.53125 L 25.386719 232.648438 L 25.417969 232.769531 L 25.445312 232.898438 L 25.46875 233.035156 L 25.492188 233.175781 L 25.511719 233.324219 L 25.523438 233.480469 L 25.535156 233.640625 L 25.542969 233.808594 L 25.550781 233.980469 Z M 24.765625 234.160156 L 24.761719 234.019531 L 24.761719 233.882812 L 24.757812 233.75 L 24.75 233.621094 L 24.742188 233.5 L 24.734375 233.382812 L 24.722656 233.269531 L 24.710938 233.164062 L 24.695312 233.058594 L 24.679688 232.960938 L 24.660156 232.867188 L 24.640625 232.777344 L 24.621094 232.691406 L 24.597656 232.609375 L 24.570312 232.53125 L 24.546875 232.457031 L 24.519531 232.386719 L 24.488281 232.316406 L 24.457031 232.253906 L 24.425781 232.195312 L 24.390625 232.140625 L 24.355469 232.089844 L 24.316406 232.039062 L 24.277344 231.992188 L 24.238281 231.953125 L 24.195312 231.914062 L 24.152344 231.878906 L 24.105469 231.847656 L 24.0625 231.816406 L 24.011719 231.792969 L 23.964844 231.769531 L 23.863281 231.730469 L 23.808594 231.714844 L 23.699219 231.691406 L 23.582031 231.675781 L 23.523438 231.675781 L 23.460938 231.671875 L 23.398438 231.675781 L 23.335938 231.675781 L 23.273438 231.683594 L 23.214844 231.691406 L 23.097656 231.714844 L 23.042969 231.730469 L 22.988281 231.75 L 22.9375 231.769531 L 22.886719 231.792969 L 22.835938 231.820312 L 22.789062 231.847656 L 22.742188 231.878906 L 22.65625 231.957031 L 22.617188 231.996094 L 22.574219 232.042969 L 22.539062 232.09375 L 22.5 232.144531 L 22.464844 232.203125 L 22.433594 232.261719 L 22.402344 232.324219 L 22.371094 232.390625 L 22.34375 232.460938 L 22.316406 232.535156 L 22.292969 232.613281 L 22.269531 232.695312 L 22.25 232.78125 L 22.230469 232.871094 L 22.210938 232.964844 L 22.195312 233.0625 L 22.179688 233.167969 L 22.167969 233.273438 L 22.15625 233.386719 L 22.148438 233.503906 L 22.140625 233.625 L 22.132812 233.75 L 22.128906 233.882812 L 22.125 234.019531 L 22.125 234.296875 L 22.128906 234.429688 L 22.132812 234.558594 L 22.140625 234.683594 L 22.15625 234.917969 L 22.167969 235.027344 L 22.179688 235.132812 L 22.195312 235.234375 L 22.210938 235.332031 L 22.230469 235.425781 L 22.25 235.515625 L 22.296875 235.6875 L 22.320312 235.765625 L 22.347656 235.839844 L 22.375 235.910156 L 22.4375 236.042969 L 22.46875 236.101562 L 22.503906 236.160156 L 22.542969 236.210938 L 22.578125 236.261719 L 22.617188 236.308594 L 22.660156 236.351562 L 22.746094 236.429688 L 22.839844 236.492188 L 22.886719 236.519531 L 22.9375 236.542969 L 23.039062 236.582031 L 23.148438 236.613281 L 23.207031 236.625 L 23.261719 236.632812 L 23.324219 236.640625 L 23.382812 236.644531 L 23.503906 236.644531 L 23.566406 236.640625 L 23.621094 236.632812 L 23.679688 236.625 L 23.734375 236.613281 L 23.84375 236.582031 L 23.945312 236.542969 L 23.996094 236.519531 L 24.042969 236.492188 L 24.136719 236.429688 L 24.222656 236.351562 L 24.261719 236.308594 L 24.300781 236.261719 L 24.335938 236.210938 L 24.375 236.160156 L 24.40625 236.101562 L 24.441406 236.042969 L 24.503906 235.910156 L 24.53125 235.839844 L 24.558594 235.765625 L 24.585938 235.6875 L 24.609375 235.601562 L 24.628906 235.515625 L 24.652344 235.425781 L 24.667969 235.332031 L 24.6875 235.234375 L 24.703125 235.132812 L 24.71875 235.027344 L 24.730469 234.917969 L 24.742188 234.800781 L 24.75 234.683594 L 24.753906 234.558594 L 24.761719 234.429688 L 24.761719 234.296875 Z M 24.765625 234.160156 "/>
<path fill-rule="nonzero" fill="rgb(30.196078%, 30.196078%, 30.196078%)" fill-opacity="1" d="M 26.699219 237.191406 L 26.699219 236.25 L 27.535156 236.25 L 27.535156 237.191406 Z M 26.699219 237.191406 "/>
<path fill-rule="nonzero" fill="rgb(30.196078%, 30.196078%, 30.196078%)" fill-opacity="1" d="M 32.863281 235.21875 L 32.863281 235.308594 L 32.859375 235.398438 L 32.84375 235.570312 L 32.796875 235.816406 L 32.777344 235.898438 L 32.753906 235.976562 L 32.699219 236.125 L 32.667969 236.199219 L 32.632812 236.269531 L 32.554688 236.402344 L 32.511719 236.46875 L 32.46875 236.53125 L 32.421875 236.589844 L 32.371094 236.648438 L 32.261719 236.757812 L 32.203125 236.808594 L 32.144531 236.855469 L 32.082031 236.902344 L 32.015625 236.945312 L 31.875 237.023438 L 31.800781 237.058594 L 31.722656 237.09375 L 31.644531 237.125 L 31.480469 237.179688 L 31.390625 237.203125 L 31.304688 237.222656 L 31.210938 237.238281 L 31.117188 237.25 L 31.019531 237.261719 L 30.921875 237.269531 L 30.820312 237.273438 L 30.714844 237.277344 L 30.621094 237.273438 L 30.441406 237.265625 L 30.351562 237.257812 L 30.105469 237.222656 L 30.03125 237.203125 L 29.953125 237.183594 L 29.882812 237.164062 L 29.8125 237.140625 L 29.746094 237.117188 L 29.679688 237.089844 L 29.617188 237.0625 L 29.554688 237.03125 L 29.496094 237 L 29.441406 236.96875 L 29.386719 236.933594 L 29.335938 236.898438 L 29.285156 236.859375 L 29.238281 236.820312 L 29.191406 236.777344 L 29.105469 236.691406 L 29.0625 236.644531 L 29.027344 236.597656 L 28.988281 236.550781 L 28.957031 236.5 L 28.921875 236.449219 L 28.867188 236.347656 L 28.839844 236.292969 L 28.792969 236.183594 L 28.773438 236.128906 L 28.734375 236.011719 L 28.71875 235.957031 L 28.703125 235.894531 L 28.691406 235.835938 L 29.472656 235.746094 L 29.484375 235.78125 L 29.492188 235.816406 L 29.503906 235.847656 L 29.519531 235.882812 L 29.53125 235.914062 L 29.542969 235.949219 L 29.558594 235.984375 L 29.589844 236.046875 L 29.605469 236.082031 L 29.664062 236.175781 L 29.683594 236.203125 L 29.707031 236.234375 L 29.730469 236.261719 L 29.757812 236.289062 L 29.78125 236.316406 L 29.808594 236.34375 L 29.839844 236.371094 L 29.933594 236.441406 L 30.003906 236.480469 L 30.121094 236.539062 L 30.160156 236.554688 L 30.203125 236.570312 L 30.25 236.585938 L 30.34375 236.609375 L 30.445312 236.625 L 30.5 236.632812 L 30.554688 236.636719 L 30.671875 236.644531 L 30.792969 236.644531 L 30.851562 236.640625 L 30.90625 236.636719 L 30.964844 236.628906 L 31.074219 236.613281 L 31.125 236.601562 L 31.179688 236.585938 L 31.230469 236.570312 L 31.277344 236.554688 L 31.328125 236.535156 L 31.375 236.511719 L 31.460938 236.464844 L 31.546875 236.410156 L 31.625 236.347656 L 31.730469 236.242188 L 31.792969 236.164062 L 31.824219 236.121094 L 31.851562 236.078125 L 31.878906 236.03125 L 31.925781 235.9375 L 31.964844 235.835938 L 31.984375 235.78125 L 32.015625 235.671875 L 32.027344 235.613281 L 32.035156 235.554688 L 32.046875 235.492188 L 32.054688 235.367188 L 32.058594 235.300781 L 32.058594 235.125 L 32.050781 235.070312 L 32.046875 235.019531 L 32.039062 234.96875 L 32.003906 234.816406 L 31.988281 234.769531 L 31.96875 234.722656 L 31.953125 234.675781 L 31.929688 234.632812 L 31.910156 234.585938 L 31.886719 234.546875 L 31.859375 234.503906 L 31.835938 234.464844 L 31.804688 234.425781 L 31.777344 234.390625 L 31.746094 234.355469 L 31.710938 234.320312 L 31.679688 234.285156 L 31.640625 234.253906 L 31.605469 234.222656 L 31.527344 234.167969 L 31.484375 234.140625 L 31.441406 234.117188 L 31.394531 234.09375 L 31.300781 234.054688 L 31.25 234.035156 L 31.148438 234.003906 L 31.097656 233.992188 L 31.042969 233.980469 L 30.988281 233.972656 L 30.929688 233.96875 L 30.871094 233.960938 L 30.8125 233.960938 L 30.75 233.957031 L 30.710938 233.957031 L 30.671875 233.960938 L 30.636719 233.960938 L 30.601562 233.964844 L 30.5625 233.96875 L 30.492188 233.976562 L 30.460938 233.980469 L 30.425781 233.988281 L 30.394531 233.992188 L 30.359375 234 L 30.265625 234.023438 L 30.234375 234.035156 L 30.203125 234.042969 L 30.175781 234.054688 L 30.144531 234.066406 L 30.117188 234.074219 L 30.089844 234.085938 L 30.0625 234.101562 L 30.007812 234.125 L 29.980469 234.140625 L 29.957031 234.152344 L 29.929688 234.167969 L 29.789062 234.261719 L 29.769531 234.277344 L 29.746094 234.292969 L 29.707031 234.324219 L 29.683594 234.34375 L 29.644531 234.375 L 29.625 234.394531 L 28.867188 234.394531 L 29.070312 231.136719 L 32.511719 231.136719 L 32.511719 231.792969 L 29.773438 231.792969 L 29.660156 233.714844 L 29.699219 233.683594 L 29.792969 233.621094 L 29.839844 233.59375 L 29.941406 233.539062 L 29.996094 233.515625 L 30.054688 233.488281 L 30.113281 233.464844 L 30.175781 233.441406 L 30.300781 233.402344 L 30.371094 233.382812 L 30.441406 233.367188 L 30.511719 233.355469 L 30.585938 233.34375 L 30.664062 233.335938 L 30.742188 233.332031 L 30.824219 233.328125 L 31 233.328125 L 31.085938 233.332031 L 31.171875 233.339844 L 31.253906 233.347656 L 31.335938 233.363281 L 31.417969 233.375 L 31.574219 233.414062 L 31.648438 233.4375 L 31.722656 233.464844 L 31.792969 233.492188 L 31.859375 233.523438 L 31.929688 233.558594 L 31.992188 233.59375 L 32.117188 233.671875 L 32.171875 233.714844 L 32.230469 233.757812 L 32.285156 233.804688 L 32.386719 233.90625 L 32.433594 233.960938 L 32.519531 234.070312 L 32.558594 234.128906 L 32.597656 234.191406 L 32.667969 234.316406 L 32.699219 234.382812 L 32.753906 234.523438 L 32.777344 234.59375 L 32.796875 234.667969 L 32.828125 234.816406 L 32.84375 234.894531 L 32.851562 234.972656 L 32.859375 235.054688 L 32.863281 235.136719 Z M 32.863281 235.21875 "/>
<path fill-rule="nonzero" fill="rgb(30.196078%, 30.196078%, 30.196078%)" fill-opacity="1" d="M 18.460938 138.730469 L 18.460938 138.042969 L 20.609375 138.042969 L 20.609375 138.730469 Z M 18.460938 138.730469 "/>
<path fill-rule="nonzero" fill="rgb(30.196078%, 30.196078%, 30.196078%)" fill-opacity="1" d="M 25.550781 137.695312 L 25.550781 137.867188 L 25.542969 138.03125 L 25.535156 138.191406 L 25.523438 138.347656 L 25.507812 138.496094 L 25.492188 138.640625 L 25.46875 138.78125 L 25.445312 138.914062 L 25.382812 139.164062 L 25.347656 139.28125 L 25.3125 139.390625 L 25.273438 139.5 L 25.234375 139.601562 L 25.1875 139.699219 L 25.140625 139.792969 L 25.09375 139.882812 L 25.042969 139.96875 L 24.988281 140.050781 L 24.933594 140.125 L 24.875 140.195312 L 24.8125 140.261719 L 24.753906 140.328125 L 24.6875 140.386719 L 24.554688 140.488281 L 24.484375 140.535156 L 24.414062 140.578125 L 24.335938 140.617188 L 24.261719 140.648438 L 24.183594 140.679688 L 24.105469 140.707031 L 24.023438 140.730469 L 23.945312 140.75 L 23.863281 140.769531 L 23.777344 140.785156 L 23.695312 140.792969 L 23.523438 140.808594 L 23.347656 140.808594 L 23.175781 140.792969 L 23.09375 140.785156 L 23.007812 140.769531 L 22.925781 140.75 L 22.847656 140.730469 L 22.765625 140.707031 L 22.6875 140.679688 L 22.613281 140.648438 L 22.535156 140.617188 L 22.460938 140.578125 L 22.390625 140.535156 L 22.320312 140.488281 L 22.1875 140.386719 L 22.125 140.328125 L 22.0625 140.261719 L 22.003906 140.195312 L 21.945312 140.125 L 21.890625 140.050781 L 21.789062 139.886719 L 21.742188 139.796875 L 21.695312 139.703125 L 21.652344 139.605469 L 21.613281 139.503906 L 21.535156 139.285156 L 21.503906 139.167969 L 21.472656 139.046875 L 21.445312 138.917969 L 21.421875 138.785156 L 21.402344 138.644531 L 21.382812 138.5 L 21.371094 138.351562 L 21.359375 138.195312 L 21.34375 137.867188 L 21.34375 137.515625 L 21.351562 137.339844 L 21.359375 137.171875 L 21.371094 137.011719 L 21.382812 136.859375 L 21.402344 136.710938 L 21.421875 136.566406 L 21.445312 136.433594 L 21.472656 136.304688 L 21.503906 136.179688 L 21.535156 136.0625 L 21.574219 135.949219 L 21.652344 135.738281 L 21.695312 135.640625 L 21.742188 135.546875 L 21.789062 135.460938 L 21.839844 135.375 L 21.894531 135.296875 L 21.949219 135.222656 L 22.007812 135.152344 L 22.066406 135.089844 L 22.128906 135.027344 L 22.191406 134.972656 L 22.257812 134.921875 L 22.328125 134.871094 L 22.398438 134.828125 L 22.46875 134.789062 L 22.542969 134.753906 L 22.621094 134.722656 L 22.699219 134.695312 L 22.777344 134.671875 L 22.859375 134.648438 L 22.941406 134.632812 L 23.023438 134.613281 L 23.195312 134.589844 L 23.28125 134.585938 L 23.371094 134.578125 L 23.546875 134.578125 L 23.632812 134.585938 L 23.71875 134.589844 L 23.882812 134.613281 L 23.964844 134.632812 L 24.042969 134.648438 L 24.199219 134.695312 L 24.273438 134.722656 L 24.351562 134.753906 L 24.421875 134.789062 L 24.496094 134.828125 L 24.566406 134.871094 L 24.699219 134.972656 L 24.761719 135.027344 L 24.824219 135.089844 L 24.882812 135.152344 L 24.941406 135.222656 L 24.996094 135.296875 L 25.050781 135.375 L 25.101562 135.460938 L 25.148438 135.546875 L 25.195312 135.640625 L 25.238281 135.738281 L 25.316406 135.949219 L 25.351562 136.0625 L 25.386719 136.179688 L 25.417969 136.304688 L 25.445312 136.433594 L 25.46875 136.566406 L 25.492188 136.710938 L 25.511719 136.859375 L 25.523438 137.011719 L 25.535156 137.171875 L 25.542969 137.339844 L 25.550781 137.515625 Z M 24.765625 137.695312 L 24.761719 137.550781 L 24.761719 137.414062 L 24.757812 137.28125 L 24.742188 137.03125 L 24.734375 136.914062 L 24.710938 136.695312 L 24.695312 136.59375 L 24.679688 136.496094 L 24.640625 136.308594 L 24.621094 136.222656 L 24.597656 136.140625 L 24.570312 136.0625 L 24.546875 135.988281 L 24.519531 135.917969 L 24.488281 135.851562 L 24.457031 135.789062 L 24.425781 135.730469 L 24.355469 135.621094 L 24.277344 135.527344 L 24.238281 135.484375 L 24.195312 135.445312 L 24.152344 135.410156 L 24.105469 135.378906 L 24.0625 135.351562 L 24.011719 135.324219 L 23.964844 135.304688 L 23.914062 135.28125 L 23.863281 135.265625 L 23.753906 135.234375 L 23.699219 135.226562 L 23.640625 135.214844 L 23.523438 135.207031 L 23.398438 135.207031 L 23.273438 135.214844 L 23.214844 135.226562 L 23.15625 135.234375 L 23.097656 135.25 L 22.988281 135.28125 L 22.9375 135.304688 L 22.886719 135.324219 L 22.835938 135.351562 L 22.742188 135.414062 L 22.699219 135.449219 L 22.65625 135.488281 L 22.617188 135.53125 L 22.574219 135.578125 L 22.539062 135.625 L 22.5 135.679688 L 22.464844 135.734375 L 22.433594 135.792969 L 22.402344 135.855469 L 22.371094 135.921875 L 22.34375 135.992188 L 22.316406 136.066406 L 22.292969 136.144531 L 22.269531 136.226562 L 22.230469 136.40625 L 22.210938 136.5 L 22.195312 136.597656 L 22.179688 136.699219 L 22.15625 136.917969 L 22.148438 137.035156 L 22.140625 137.15625 L 22.132812 137.285156 L 22.125 137.550781 L 22.125 137.832031 L 22.128906 137.964844 L 22.132812 138.089844 L 22.140625 138.214844 L 22.148438 138.335938 L 22.15625 138.449219 L 22.167969 138.5625 L 22.179688 138.667969 L 22.195312 138.769531 L 22.210938 138.867188 L 22.230469 138.960938 L 22.25 139.050781 L 22.273438 139.136719 L 22.296875 139.21875 L 22.320312 139.296875 L 22.375 139.445312 L 22.40625 139.511719 L 22.46875 139.636719 L 22.503906 139.691406 L 22.542969 139.746094 L 22.578125 139.792969 L 22.617188 139.839844 L 22.703125 139.925781 L 22.746094 139.960938 L 22.792969 139.996094 L 22.886719 140.050781 L 22.9375 140.078125 L 23.039062 140.117188 L 23.09375 140.132812 L 23.148438 140.144531 L 23.207031 140.15625 L 23.261719 140.167969 L 23.324219 140.171875 L 23.382812 140.175781 L 23.503906 140.175781 L 23.566406 140.171875 L 23.621094 140.167969 L 23.679688 140.15625 L 23.789062 140.132812 L 23.84375 140.117188 L 23.945312 140.078125 L 23.996094 140.050781 L 24.089844 139.996094 L 24.136719 139.960938 L 24.179688 139.925781 L 24.222656 139.882812 L 24.261719 139.839844 L 24.300781 139.792969 L 24.335938 139.746094 L 24.375 139.691406 L 24.40625 139.636719 L 24.441406 139.574219 L 24.472656 139.511719 L 24.503906 139.445312 L 24.558594 139.296875 L 24.585938 139.21875 L 24.609375 139.136719 L 24.628906 139.050781 L 24.652344 138.960938 L 24.667969 138.867188 L 24.6875 138.769531 L 24.703125 138.667969 L 24.71875 138.5625 L 24.742188 138.335938 L 24.75 138.214844 L 24.753906 138.089844 L 24.761719 137.964844 L 24.761719 137.832031 Z M 24.765625 137.695312 "/>
<path fill-rule="nonzero" fill="rgb(30.196078%, 30.196078%, 30.196078%)" fill-opacity="1" d="M 26.699219 140.722656 L 26.699219 139.78125 L 27.535156 139.78125 L 27.535156 140.722656 Z M 26.699219 140.722656 "/>
<path fill-rule="nonzero" fill="rgb(30.196078%, 30.196078%, 30.196078%)" fill-opacity="1" d="M 32.125 139.351562 L 32.125 140.722656 L 31.394531 140.722656 L 31.394531 139.351562 L 28.542969 139.351562 L 28.542969 138.75 L 31.3125 134.667969 L 32.125 134.667969 L 32.125 138.742188 L 32.976562 138.742188 L 32.976562 139.351562 Z M 31.394531 135.539062 L 31.390625 135.546875 L 31.390625 135.550781 L 31.375 135.582031 L 31.371094 135.59375 L 31.363281 135.601562 L 31.359375 135.613281 L 31.351562 135.625 L 31.34375 135.640625 L 31.328125 135.664062 L 31.324219 135.679688 L 31.316406 135.691406 L 31.308594 135.707031 L 31.300781 135.71875 L 31.289062 135.734375 L 31.257812 135.796875 L 31.246094 135.8125 L 31.222656 135.859375 L 31.210938 135.875 L 31.203125 135.890625 L 31.191406 135.90625 L 31.160156 135.96875 L 31.152344 135.980469 L 31.144531 135.996094 L 31.113281 136.042969 L 31.105469 136.050781 L 29.554688 138.339844 L 29.550781 138.34375 L 29.546875 138.351562 L 29.539062 138.359375 L 29.535156 138.367188 L 29.527344 138.378906 L 29.523438 138.386719 L 29.515625 138.398438 L 29.507812 138.40625 L 29.484375 138.441406 L 29.476562 138.449219 L 29.460938 138.472656 L 29.449219 138.484375 L 29.402344 138.554688 L 29.390625 138.566406 L 29.359375 138.613281 L 29.347656 138.621094 L 29.316406 138.667969 L 29.308594 138.675781 L 29.300781 138.6875 L 29.292969 138.695312 L 29.285156 138.707031 L 29.277344 138.714844 L 29.273438 138.722656 L 29.253906 138.742188 L 31.394531 138.742188 Z M 31.394531 135.539062 "/>
<path fill-rule="nonzero" fill="rgb(30.196078%, 30.196078%, 30.196078%)" fill-opacity="1" d="M 18.460938 42.261719 L 18.460938 41.574219 L 20.609375 41.574219 L 20.609375 42.261719 Z M 18.460938 42.261719 "/>
<path fill-rule="nonzero" fill="rgb(30.196078%, 30.196078%, 30.196078%)" fill-opacity="1" d="M 25.550781 41.226562 L 25.550781 41.398438 L 25.542969 41.566406 L 25.535156 41.726562 L 25.523438 41.878906 L 25.507812 42.03125 L 25.492188 42.175781 L 25.46875 42.3125 L 25.445312 42.445312 L 25.414062 42.574219 L 25.382812 42.695312 L 25.347656 42.8125 L 25.3125 42.925781 L 25.234375 43.136719 L 25.1875 43.234375 L 25.140625 43.328125 L 25.09375 43.417969 L 25.042969 43.503906 L 24.933594 43.660156 L 24.875 43.730469 L 24.8125 43.796875 L 24.753906 43.859375 L 24.6875 43.917969 L 24.621094 43.972656 L 24.554688 44.023438 L 24.484375 44.070312 L 24.414062 44.109375 L 24.335938 44.148438 L 24.261719 44.183594 L 24.183594 44.214844 L 24.105469 44.238281 L 24.023438 44.265625 L 23.945312 44.285156 L 23.863281 44.300781 L 23.777344 44.316406 L 23.695312 44.328125 L 23.609375 44.335938 L 23.4375 44.34375 L 23.347656 44.339844 L 23.261719 44.335938 L 23.175781 44.328125 L 23.09375 44.316406 L 23.007812 44.300781 L 22.925781 44.285156 L 22.847656 44.265625 L 22.765625 44.238281 L 22.6875 44.214844 L 22.613281 44.183594 L 22.535156 44.148438 L 22.460938 44.109375 L 22.390625 44.070312 L 22.320312 44.023438 L 22.253906 43.972656 L 22.1875 43.917969 L 22.125 43.859375 L 22.0625 43.796875 L 22.003906 43.730469 L 21.945312 43.660156 L 21.890625 43.582031 L 21.839844 43.503906 L 21.789062 43.417969 L 21.742188 43.332031 L 21.695312 43.238281 L 21.652344 43.136719 L 21.613281 43.035156 L 21.574219 42.929688 L 21.535156 42.816406 L 21.503906 42.699219 L 21.472656 42.578125 L 21.445312 42.449219 L 21.421875 42.316406 L 21.402344 42.179688 L 21.382812 42.035156 L 21.371094 41.882812 L 21.359375 41.726562 L 21.351562 41.566406 L 21.34375 41.398438 L 21.34375 41.046875 L 21.351562 40.875 L 21.359375 40.707031 L 21.371094 40.546875 L 21.382812 40.390625 L 21.402344 40.242188 L 21.421875 40.101562 L 21.445312 39.964844 L 21.472656 39.835938 L 21.503906 39.714844 L 21.535156 39.597656 L 21.574219 39.484375 L 21.613281 39.375 L 21.652344 39.273438 L 21.695312 39.175781 L 21.742188 39.082031 L 21.789062 38.992188 L 21.839844 38.910156 L 21.894531 38.828125 L 21.949219 38.757812 L 22.007812 38.6875 L 22.066406 38.621094 L 22.191406 38.503906 L 22.257812 38.453125 L 22.328125 38.40625 L 22.398438 38.363281 L 22.46875 38.324219 L 22.542969 38.289062 L 22.621094 38.257812 L 22.777344 38.203125 L 22.941406 38.164062 L 23.023438 38.148438 L 23.195312 38.125 L 23.28125 38.117188 L 23.371094 38.113281 L 23.546875 38.113281 L 23.632812 38.117188 L 23.71875 38.125 L 23.882812 38.148438 L 23.964844 38.164062 L 24.121094 38.203125 L 24.199219 38.230469 L 24.273438 38.257812 L 24.351562 38.289062 L 24.421875 38.324219 L 24.496094 38.363281 L 24.566406 38.40625 L 24.632812 38.453125 L 24.699219 38.503906 L 24.824219 38.621094 L 24.882812 38.6875 L 24.941406 38.757812 L 24.996094 38.828125 L 25.050781 38.910156 L 25.101562 38.992188 L 25.148438 39.082031 L 25.195312 39.175781 L 25.238281 39.273438 L 25.277344 39.375 L 25.316406 39.484375 L 25.351562 39.597656 L 25.386719 39.714844 L 25.417969 39.835938 L 25.445312 39.964844 L 25.46875 40.101562 L 25.492188 40.242188 L 25.511719 40.390625 L 25.523438 40.546875 L 25.535156 40.707031 L 25.542969 40.875 L 25.550781 41.046875 Z M 24.765625 41.226562 L 24.761719 41.085938 L 24.761719 40.949219 L 24.757812 40.816406 L 24.75 40.6875 L 24.742188 40.566406 L 24.734375 40.449219 L 24.722656 40.335938 L 24.710938 40.226562 L 24.695312 40.125 L 24.679688 40.027344 L 24.660156 39.933594 L 24.640625 39.84375 L 24.621094 39.757812 L 24.597656 39.675781 L 24.570312 39.597656 L 24.546875 39.523438 L 24.519531 39.449219 L 24.488281 39.382812 L 24.457031 39.320312 L 24.425781 39.261719 L 24.390625 39.207031 L 24.355469 39.15625 L 24.316406 39.105469 L 24.277344 39.058594 L 24.238281 39.019531 L 24.195312 38.980469 L 24.152344 38.945312 L 24.105469 38.914062 L 24.0625 38.882812 L 24.011719 38.859375 L 23.964844 38.835938 L 23.863281 38.796875 L 23.808594 38.78125 L 23.699219 38.757812 L 23.582031 38.742188 L 23.523438 38.738281 L 23.398438 38.738281 L 23.335938 38.742188 L 23.273438 38.75 L 23.214844 38.757812 L 23.097656 38.78125 L 23.042969 38.796875 L 22.988281 38.816406 L 22.9375 38.835938 L 22.886719 38.859375 L 22.835938 38.886719 L 22.789062 38.914062 L 22.742188 38.945312 L 22.699219 38.980469 L 22.65625 39.019531 L 22.617188 39.0625 L 22.574219 39.109375 L 22.539062 39.160156 L 22.5 39.210938 L 22.464844 39.265625 L 22.433594 39.324219 L 22.371094 39.457031 L 22.34375 39.527344 L 22.316406 39.601562 L 22.292969 39.679688 L 22.269531 39.761719 L 22.25 39.847656 L 22.230469 39.9375 L 22.210938 40.03125 L 22.195312 40.128906 L 22.179688 40.234375 L 22.167969 40.339844 L 22.15625 40.453125 L 22.148438 40.570312 L 22.140625 40.691406 L 22.132812 40.816406 L 22.128906 40.949219 L 22.125 41.085938 L 22.125 41.363281 L 22.128906 41.496094 L 22.132812 41.625 L 22.140625 41.75 L 22.15625 41.984375 L 22.167969 42.09375 L 22.179688 42.199219 L 22.195312 42.300781 L 22.210938 42.398438 L 22.230469 42.492188 L 22.25 42.582031 L 22.273438 42.667969 L 22.320312 42.832031 L 22.347656 42.90625 L 22.375 42.976562 L 22.4375 43.109375 L 22.46875 43.167969 L 22.503906 43.226562 L 22.542969 43.277344 L 22.578125 43.328125 L 22.617188 43.375 L 22.660156 43.417969 L 22.703125 43.457031 L 22.746094 43.492188 L 22.792969 43.527344 L 22.839844 43.558594 L 22.886719 43.585938 L 22.9375 43.609375 L 23.039062 43.648438 L 23.148438 43.679688 L 23.207031 43.691406 L 23.261719 43.699219 L 23.324219 43.707031 L 23.382812 43.710938 L 23.503906 43.710938 L 23.566406 43.707031 L 23.621094 43.699219 L 23.679688 43.691406 L 23.734375 43.679688 L 23.84375 43.648438 L 23.945312 43.609375 L 23.996094 43.585938 L 24.042969 43.558594 L 24.089844 43.527344 L 24.136719 43.492188 L 24.179688 43.457031 L 24.222656 43.417969 L 24.261719 43.375 L 24.300781 43.328125 L 24.335938 43.277344 L 24.375 43.226562 L 24.40625 43.167969 L 24.441406 43.109375 L 24.503906 42.976562 L 24.53125 42.90625 L 24.558594 42.832031 L 24.585938 42.75 L 24.609375 42.667969 L 24.628906 42.582031 L 24.652344 42.492188 L 24.667969 42.398438 L 24.6875 42.300781 L 24.703125 42.199219 L 24.71875 42.09375 L 24.730469 41.984375 L 24.742188 41.867188 L 24.75 41.75 L 24.753906 41.625 L 24.761719 41.496094 L 24.761719 41.363281 Z M 24.765625 41.226562 "/>
<path fill-rule="nonzero" fill="rgb(30.196078%, 30.196078%, 30.196078%)" fill-opacity="1" d="M 26.699219 44.257812 L 26.699219 43.316406 L 27.535156 43.316406 L 27.535156 44.257812 Z M 26.699219 44.257812 "/>
<path fill-rule="nonzero" fill="rgb(30.196078%, 30.196078%, 30.196078%)" fill-opacity="1" d="M 32.847656 42.585938 L 32.84375 42.667969 L 32.839844 42.746094 L 32.835938 42.828125 L 32.824219 42.902344 L 32.8125 42.980469 L 32.796875 43.050781 L 32.78125 43.125 L 32.757812 43.195312 L 32.710938 43.328125 L 32.679688 43.390625 L 32.652344 43.453125 L 32.617188 43.515625 L 32.582031 43.574219 L 32.503906 43.683594 L 32.460938 43.738281 L 32.414062 43.789062 L 32.3125 43.882812 L 32.261719 43.925781 L 32.207031 43.96875 L 32.148438 44.007812 L 32.023438 44.078125 L 31.957031 44.113281 L 31.890625 44.144531 L 31.820312 44.171875 L 31.746094 44.199219 L 31.667969 44.226562 L 31.589844 44.246094 L 31.511719 44.269531 L 31.429688 44.285156 L 31.34375 44.300781 L 31.171875 44.324219 L 31.078125 44.332031 L 30.890625 44.339844 L 30.792969 44.34375 L 30.574219 44.335938 L 30.371094 44.320312 L 30.273438 44.308594 L 30.179688 44.292969 L 30.089844 44.273438 L 30.003906 44.253906 L 29.921875 44.230469 L 29.84375 44.203125 L 29.769531 44.175781 L 29.695312 44.144531 L 29.625 44.113281 L 29.492188 44.042969 L 29.375 43.964844 L 29.316406 43.921875 L 29.261719 43.878906 L 29.210938 43.835938 L 29.164062 43.789062 L 29.117188 43.738281 L 29.074219 43.691406 L 29.03125 43.640625 L 28.992188 43.585938 L 28.957031 43.535156 L 28.921875 43.480469 L 28.890625 43.425781 L 28.863281 43.367188 L 28.835938 43.3125 L 28.8125 43.25 L 28.792969 43.191406 L 28.769531 43.132812 L 28.75 43.070312 L 28.734375 43.011719 L 28.71875 42.949219 L 28.707031 42.886719 L 28.691406 42.824219 L 28.675781 42.699219 L 29.472656 42.628906 L 29.488281 42.722656 L 29.5 42.769531 L 29.523438 42.855469 L 29.535156 42.902344 L 29.550781 42.941406 L 29.5625 42.984375 L 29.582031 43.027344 L 29.597656 43.066406 L 29.636719 43.144531 L 29.707031 43.25 L 29.734375 43.28125 L 29.761719 43.316406 L 29.789062 43.347656 L 29.820312 43.375 L 29.851562 43.40625 L 29.882812 43.433594 L 29.917969 43.460938 L 29.953125 43.484375 L 29.992188 43.507812 L 30.027344 43.53125 L 30.070312 43.550781 L 30.109375 43.570312 L 30.195312 43.609375 L 30.289062 43.640625 L 30.441406 43.675781 L 30.496094 43.683594 L 30.550781 43.6875 L 30.609375 43.695312 L 30.667969 43.699219 L 30.730469 43.699219 L 30.792969 43.703125 L 30.90625 43.699219 L 31.015625 43.691406 L 31.121094 43.675781 L 31.21875 43.65625 L 31.3125 43.628906 L 31.402344 43.597656 L 31.488281 43.5625 L 31.566406 43.515625 L 31.640625 43.46875 L 31.707031 43.414062 L 31.773438 43.351562 L 31.828125 43.289062 L 31.878906 43.214844 L 31.921875 43.140625 L 31.960938 43.054688 L 31.988281 42.96875 L 32.011719 42.875 L 32.03125 42.773438 L 32.039062 42.667969 L 32.042969 42.558594 L 32.042969 42.492188 L 32.039062 42.429688 L 32.03125 42.371094 L 32.019531 42.3125 L 31.988281 42.203125 L 31.96875 42.15625 L 31.921875 42.0625 L 31.894531 42.023438 L 31.863281 41.980469 L 31.832031 41.941406 L 31.761719 41.871094 L 31.691406 41.808594 L 31.648438 41.777344 L 31.609375 41.753906 L 31.566406 41.726562 L 31.480469 41.679688 L 31.386719 41.640625 L 31.339844 41.625 L 31.292969 41.605469 L 31.246094 41.59375 L 31.195312 41.578125 L 31.144531 41.566406 L 30.890625 41.527344 L 30.84375 41.523438 L 30.792969 41.519531 L 30.746094 41.515625 L 30.699219 41.515625 L 30.652344 41.511719 L 30.125 41.511719 L 30.125 40.839844 L 30.636719 40.839844 L 30.679688 40.835938 L 30.726562 40.832031 L 30.769531 40.828125 L 30.863281 40.820312 L 31.003906 40.796875 L 31.050781 40.785156 L 31.097656 40.777344 L 31.140625 40.761719 L 31.183594 40.75 L 31.230469 40.734375 L 31.269531 40.714844 L 31.355469 40.675781 L 31.394531 40.65625 L 31.472656 40.609375 L 31.507812 40.582031 L 31.546875 40.554688 L 31.578125 40.523438 L 31.613281 40.492188 L 31.644531 40.460938 L 31.675781 40.425781 L 31.703125 40.390625 L 31.730469 40.351562 L 31.753906 40.3125 L 31.78125 40.269531 L 31.800781 40.226562 L 31.820312 40.179688 L 31.835938 40.132812 L 31.851562 40.082031 L 31.863281 40.027344 L 31.878906 39.917969 L 31.882812 39.859375 L 31.882812 39.699219 L 31.871094 39.609375 L 31.859375 39.523438 L 31.839844 39.441406 L 31.8125 39.363281 L 31.78125 39.289062 L 31.742188 39.21875 L 31.699219 39.152344 L 31.652344 39.089844 L 31.597656 39.03125 L 31.535156 38.976562 L 31.472656 38.929688 L 31.402344 38.886719 L 31.324219 38.847656 L 31.242188 38.816406 L 31.15625 38.792969 L 31.0625 38.773438 L 30.964844 38.757812 L 30.859375 38.75 L 30.75 38.746094 L 30.648438 38.75 L 30.554688 38.757812 L 30.460938 38.769531 L 30.371094 38.789062 L 30.285156 38.8125 L 30.128906 38.875 L 30.054688 38.914062 L 29.984375 38.960938 L 29.921875 39.007812 L 29.859375 39.0625 L 29.804688 39.121094 L 29.710938 39.253906 L 29.671875 39.324219 L 29.636719 39.402344 L 29.609375 39.480469 L 29.585938 39.566406 L 29.566406 39.65625 L 29.554688 39.75 L 28.777344 39.6875 L 28.800781 39.53125 L 28.816406 39.457031 L 28.855469 39.316406 L 28.878906 39.246094 L 28.933594 39.113281 L 28.964844 39.050781 L 28.996094 38.992188 L 29.03125 38.933594 L 29.109375 38.824219 L 29.148438 38.773438 L 29.234375 38.671875 L 29.328125 38.585938 L 29.378906 38.542969 L 29.429688 38.503906 L 29.539062 38.425781 L 29.597656 38.394531 L 29.65625 38.359375 L 29.714844 38.332031 L 29.777344 38.300781 L 29.902344 38.253906 L 29.96875 38.230469 L 30.035156 38.210938 L 30.105469 38.191406 L 30.175781 38.175781 L 30.242188 38.160156 L 30.316406 38.148438 L 30.386719 38.136719 L 30.460938 38.128906 L 30.53125 38.121094 L 30.605469 38.117188 L 30.683594 38.113281 L 30.859375 38.113281 L 30.957031 38.117188 L 31.050781 38.125 L 31.140625 38.132812 L 31.230469 38.144531 L 31.316406 38.15625 L 31.480469 38.195312 L 31.554688 38.214844 L 31.628906 38.242188 L 31.703125 38.265625 L 31.769531 38.292969 L 31.902344 38.355469 L 31.960938 38.386719 L 32.019531 38.425781 L 32.078125 38.460938 L 32.128906 38.5 L 32.179688 38.542969 L 32.273438 38.628906 L 32.316406 38.671875 L 32.355469 38.71875 L 32.394531 38.769531 L 32.429688 38.816406 L 32.460938 38.871094 L 32.492188 38.921875 L 32.519531 38.976562 L 32.542969 39.035156 L 32.566406 39.089844 L 32.589844 39.148438 L 32.609375 39.210938 L 32.625 39.269531 L 32.640625 39.332031 L 32.652344 39.394531 L 32.675781 39.582031 L 32.679688 39.648438 L 32.679688 39.765625 L 32.675781 39.820312 L 32.667969 39.921875 L 32.652344 40.023438 L 32.644531 40.070312 L 32.621094 40.164062 L 32.574219 40.304688 L 32.535156 40.390625 L 32.511719 40.433594 L 32.488281 40.472656 L 32.464844 40.515625 L 32.410156 40.59375 L 32.347656 40.664062 L 32.3125 40.703125 L 32.277344 40.734375 L 32.242188 40.769531 L 32.203125 40.800781 L 32.160156 40.832031 L 32.121094 40.863281 L 32.074219 40.890625 L 32.03125 40.921875 L 31.984375 40.949219 L 31.933594 40.972656 L 31.882812 41 L 31.832031 41.023438 L 31.777344 41.042969 L 31.722656 41.066406 L 31.664062 41.085938 L 31.605469 41.101562 L 31.542969 41.121094 L 31.476562 41.136719 L 31.410156 41.148438 L 31.410156 41.167969 L 31.484375 41.175781 L 31.554688 41.1875 L 31.6875 41.210938 L 31.753906 41.226562 L 31.816406 41.246094 L 31.933594 41.285156 L 31.992188 41.308594 L 32.046875 41.335938 L 32.101562 41.359375 L 32.203125 41.414062 L 32.25 41.445312 L 32.292969 41.476562 L 32.339844 41.507812 L 32.378906 41.539062 L 32.421875 41.574219 L 32.496094 41.648438 L 32.527344 41.6875 L 32.5625 41.726562 L 32.59375 41.765625 L 32.648438 41.851562 L 32.695312 41.9375 L 32.71875 41.984375 L 32.757812 42.078125 L 32.773438 42.125 L 32.789062 42.175781 L 32.800781 42.222656 L 32.824219 42.324219 L 32.839844 42.425781 L 32.84375 42.480469 L 32.847656 42.53125 Z M 32.847656 42.585938 "/>
<path fill="none" stroke-width="1.066978" stroke-linecap="butt" stroke-linejoin="round" stroke="rgb(20%, 20%, 20%)" stroke-opacity="1" stroke-miterlimit="10" d="M 35.425781 234.164062 L 38.164062 234.164062 "/>
<path fill="none" stroke-width="1.066978" stroke-linecap="butt" stroke-linejoin="round" stroke="rgb(20%, 20%, 20%)" stroke-opacity="1" stroke-miterlimit="10" d="M 35.425781 137.695312 L 38.164062 137.695312 "/>
<path fill="none" stroke-width="1.066978" stroke-linecap="butt" stroke-linejoin="round" stroke="rgb(20%, 20%, 20%)" stroke-opacity="1" stroke-miterlimit="10" d="M 35.425781 41.230469 L 38.164062 41.230469 "/>
<path fill="none" stroke-width="1.066978" stroke-linecap="butt" stroke-linejoin="round" stroke="rgb(0%, 0%, 0%)" stroke-opacity="1" stroke-miterlimit="10" d="M 38.164062 329.117188 L 498.519531 329.117188 "/>
<path fill="none" stroke-width="1.066978" stroke-linecap="butt" stroke-linejoin="round" stroke="rgb(20%, 20%, 20%)" stroke-opacity="1" stroke-miterlimit="10" d="M 59.089844 331.859375 L 59.089844 329.117188 "/>
<path fill="none" stroke-width="1.066978" stroke-linecap="butt" stroke-linejoin="round" stroke="rgb(20%, 20%, 20%)" stroke-opacity="1" stroke-miterlimit="10" d="M 198.59375 331.859375 L 198.59375 329.117188 "/>
<path fill="none" stroke-width="1.066978" stroke-linecap="butt" stroke-linejoin="round" stroke="rgb(20%, 20%, 20%)" stroke-opacity="1" stroke-miterlimit="10" d="M 338.09375 331.859375 L 338.09375 329.117188 "/>
<path fill="none" stroke-width="1.066978" stroke-linecap="butt" stroke-linejoin="round" stroke="rgb(20%, 20%, 20%)" stroke-opacity="1" stroke-miterlimit="10" d="M 477.59375 331.859375 L 477.59375 329.117188 "/>
<path fill-rule="nonzero" fill="rgb(30.196078%, 30.196078%, 30.196078%)" fill-opacity="1" d="M 57.3125 340.105469 L 57.3125 339.445312 L 58.855469 339.445312 L 58.855469 334.789062 L 57.488281 335.765625 L 57.488281 335.035156 L 58.921875 334.050781 L 59.632812 334.050781 L 59.632812 339.445312 L 61.109375 339.445312 L 61.109375 340.105469 Z M 57.3125 340.105469 "/>
<path fill-rule="nonzero" fill="rgb(30.196078%, 30.196078%, 30.196078%)" fill-opacity="1" d="M 196.585938 340.105469 L 196.585938 339.558594 L 196.726562 339.265625 L 196.777344 339.175781 L 196.832031 339.085938 L 196.882812 339 L 196.941406 338.914062 L 197.058594 338.75 L 197.121094 338.671875 L 197.183594 338.597656 L 197.25 338.523438 L 197.3125 338.449219 L 197.378906 338.375 L 197.445312 338.304688 L 197.582031 338.167969 L 197.648438 338.105469 L 197.71875 338.039062 L 197.785156 337.976562 L 197.855469 337.914062 L 197.925781 337.855469 L 197.996094 337.792969 L 198.0625 337.734375 L 198.132812 337.675781 L 198.199219 337.617188 L 198.269531 337.5625 L 198.335938 337.503906 L 198.40625 337.449219 L 198.472656 337.398438 L 198.542969 337.34375 L 198.609375 337.289062 L 198.671875 337.238281 L 198.738281 337.183594 L 198.800781 337.128906 L 198.863281 337.078125 L 198.921875 337.023438 L 198.980469 336.972656 L 199.035156 336.917969 L 199.09375 336.863281 L 199.199219 336.757812 L 199.246094 336.703125 L 199.296875 336.648438 L 199.339844 336.589844 L 199.425781 336.480469 L 199.464844 336.421875 L 199.535156 336.304688 L 199.597656 336.1875 L 199.621094 336.125 L 199.644531 336.058594 L 199.664062 335.992188 L 199.679688 335.925781 L 199.691406 335.859375 L 199.707031 335.71875 L 199.707031 335.59375 L 199.703125 335.542969 L 199.695312 335.449219 L 199.6875 335.402344 L 199.679688 335.359375 L 199.644531 335.230469 L 199.613281 335.152344 L 199.597656 335.117188 L 199.578125 335.078125 L 199.558594 335.046875 L 199.535156 335.011719 L 199.488281 334.949219 L 199.460938 334.917969 L 199.40625 334.863281 L 199.375 334.835938 L 199.28125 334.765625 L 199.210938 334.726562 L 199.171875 334.710938 L 199.132812 334.691406 L 199.09375 334.679688 L 199.054688 334.664062 L 199.011719 334.652344 L 198.972656 334.640625 L 198.929688 334.628906 L 198.882812 334.621094 L 198.839844 334.613281 L 198.792969 334.605469 L 198.699219 334.597656 L 198.652344 334.597656 L 198.601562 334.59375 L 198.554688 334.597656 L 198.511719 334.597656 L 198.464844 334.601562 L 198.421875 334.605469 L 198.378906 334.613281 L 198.332031 334.617188 L 198.289062 334.628906 L 198.246094 334.636719 L 198.207031 334.648438 L 198.164062 334.660156 L 198.125 334.671875 L 198.046875 334.703125 L 198.007812 334.722656 L 197.902344 334.78125 L 197.867188 334.804688 L 197.804688 334.851562 L 197.742188 334.90625 L 197.714844 334.9375 L 197.683594 334.964844 L 197.660156 335 L 197.632812 335.03125 L 197.5625 335.136719 L 197.503906 335.253906 L 197.488281 335.292969 L 197.472656 335.335938 L 197.460938 335.378906 L 197.425781 335.519531 L 197.417969 335.566406 L 197.414062 335.617188 L 196.621094 335.546875 L 196.628906 335.480469 L 196.640625 335.414062 L 196.652344 335.351562 L 196.667969 335.289062 L 196.6875 335.226562 L 196.707031 335.167969 L 196.726562 335.105469 L 196.773438 334.988281 L 196.800781 334.929688 L 196.863281 334.820312 L 196.933594 334.710938 L 196.972656 334.660156 L 197.011719 334.613281 L 197.054688 334.5625 L 197.097656 334.515625 L 197.191406 334.429688 L 197.242188 334.386719 L 197.296875 334.34375 L 197.351562 334.304688 L 197.410156 334.269531 L 197.46875 334.230469 L 197.527344 334.199219 L 197.589844 334.167969 L 197.65625 334.136719 L 197.722656 334.109375 L 197.789062 334.085938 L 197.863281 334.058594 L 198.011719 334.019531 L 198.089844 334.003906 L 198.167969 333.992188 L 198.253906 333.980469 L 198.335938 333.972656 L 198.421875 333.964844 L 198.511719 333.960938 L 198.691406 333.960938 L 198.863281 333.96875 L 198.949219 333.976562 L 199.027344 333.988281 L 199.109375 334 L 199.1875 334.011719 L 199.261719 334.027344 L 199.335938 334.046875 L 199.40625 334.066406 L 199.476562 334.089844 L 199.542969 334.113281 L 199.609375 334.140625 L 199.671875 334.167969 L 199.730469 334.199219 L 199.789062 334.234375 L 199.898438 334.304688 L 199.949219 334.34375 L 200 334.386719 L 200.09375 334.472656 L 200.136719 334.519531 L 200.214844 334.621094 L 200.25 334.671875 L 200.285156 334.726562 L 200.347656 334.84375 L 200.371094 334.90625 L 200.398438 334.96875 L 200.417969 335.03125 L 200.4375 335.097656 L 200.457031 335.167969 L 200.480469 335.308594 L 200.492188 335.382812 L 200.5 335.539062 L 200.5 335.679688 L 200.492188 335.796875 L 200.484375 335.855469 L 200.460938 335.972656 L 200.445312 336.03125 L 200.429688 336.085938 L 200.410156 336.144531 L 200.390625 336.199219 L 200.34375 336.308594 L 200.320312 336.359375 L 200.292969 336.414062 L 200.261719 336.464844 L 200.234375 336.519531 L 200.203125 336.570312 L 200.0625 336.773438 L 200.023438 336.820312 L 199.984375 336.871094 L 199.945312 336.917969 L 199.902344 336.96875 L 199.816406 337.0625 L 199.628906 337.25 L 199.578125 337.296875 L 199.53125 337.34375 L 199.480469 337.386719 L 199.378906 337.480469 L 199.328125 337.523438 L 199.277344 337.570312 L 199.226562 337.613281 L 199.175781 337.660156 L 199.121094 337.703125 L 199.070312 337.746094 L 199.015625 337.789062 L 198.964844 337.835938 L 198.910156 337.878906 L 198.859375 337.921875 L 198.804688 337.964844 L 198.753906 338.011719 L 198.644531 338.097656 L 198.59375 338.140625 L 198.539062 338.183594 L 198.335938 338.355469 L 198.289062 338.398438 L 198.238281 338.445312 L 198.097656 338.574219 L 197.964844 338.707031 L 197.921875 338.753906 L 197.882812 338.796875 L 197.839844 338.84375 L 197.800781 338.886719 L 197.761719 338.933594 L 197.726562 338.976562 L 197.65625 339.070312 L 197.621094 339.113281 L 197.589844 339.160156 L 197.507812 339.300781 L 197.484375 339.347656 L 197.460938 339.398438 L 197.4375 339.445312 L 200.597656 339.445312 L 200.597656 340.105469 Z M 196.585938 340.105469 "/>
<path fill-rule="nonzero" fill="rgb(30.196078%, 30.196078%, 30.196078%)" fill-opacity="1" d="M 340.152344 338.433594 L 340.152344 338.515625 L 340.148438 338.59375 L 340.140625 338.675781 L 340.132812 338.75 L 340.121094 338.828125 L 340.105469 338.898438 L 340.085938 338.972656 L 340.066406 339.042969 L 340.042969 339.109375 L 339.988281 339.242188 L 339.957031 339.300781 L 339.925781 339.363281 L 339.890625 339.421875 L 339.851562 339.476562 L 339.765625 339.585938 L 339.722656 339.636719 L 339.621094 339.730469 L 339.511719 339.816406 L 339.453125 339.855469 L 339.394531 339.890625 L 339.332031 339.929688 L 339.265625 339.960938 L 339.125 340.023438 L 339.050781 340.050781 L 338.976562 340.074219 L 338.898438 340.097656 L 338.820312 340.117188 L 338.738281 340.132812 L 338.652344 340.148438 L 338.566406 340.160156 L 338.476562 340.171875 L 338.386719 340.179688 L 338.199219 340.1875 L 338.101562 340.191406 L 337.988281 340.1875 L 337.882812 340.183594 L 337.777344 340.175781 L 337.679688 340.167969 L 337.582031 340.15625 L 337.488281 340.140625 L 337.398438 340.121094 L 337.3125 340.101562 L 337.230469 340.078125 L 337.074219 340.023438 L 336.933594 339.960938 L 336.800781 339.890625 L 336.738281 339.851562 L 336.679688 339.8125 L 336.570312 339.726562 L 336.519531 339.683594 L 336.46875 339.636719 L 336.425781 339.585938 L 336.378906 339.539062 L 336.300781 339.4375 L 336.230469 339.328125 L 336.199219 339.273438 L 336.171875 339.214844 L 336.144531 339.160156 L 336.121094 339.097656 L 336.097656 339.039062 L 336.078125 338.980469 L 336.058594 338.917969 L 336.042969 338.859375 L 336.011719 338.734375 L 336 338.671875 L 335.992188 338.609375 L 335.980469 338.546875 L 336.78125 338.476562 L 336.804688 338.617188 L 336.816406 338.660156 L 336.828125 338.707031 L 336.84375 338.75 L 336.855469 338.792969 L 336.871094 338.832031 L 336.886719 338.875 L 336.945312 338.992188 L 337.015625 339.097656 L 337.042969 339.132812 L 337.097656 339.195312 L 337.128906 339.222656 L 337.160156 339.253906 L 337.191406 339.28125 L 337.226562 339.308594 L 337.296875 339.355469 L 337.335938 339.378906 L 337.375 339.398438 L 337.417969 339.421875 L 337.460938 339.4375 L 337.503906 339.457031 L 337.597656 339.488281 L 337.644531 339.5 L 337.695312 339.511719 L 337.75 339.523438 L 337.859375 339.539062 L 337.976562 339.546875 L 338.039062 339.550781 L 338.101562 339.550781 L 338.214844 339.546875 L 338.324219 339.539062 L 338.429688 339.523438 L 338.527344 339.503906 L 338.621094 339.476562 L 338.710938 339.445312 L 338.792969 339.410156 L 338.871094 339.367188 L 338.945312 339.316406 L 339.015625 339.261719 L 339.078125 339.203125 L 339.136719 339.136719 L 339.1875 339.0625 L 339.230469 338.988281 L 339.265625 338.902344 L 339.296875 338.816406 L 339.320312 338.722656 L 339.335938 338.621094 L 339.347656 338.515625 L 339.351562 338.40625 L 339.347656 338.339844 L 339.34375 338.277344 L 339.328125 338.160156 L 339.296875 338.050781 L 339.277344 338.003906 L 339.230469 337.910156 L 339.199219 337.871094 L 339.171875 337.828125 L 339.136719 337.789062 L 339.105469 337.753906 L 339.070312 337.71875 L 339.035156 337.6875 L 338.996094 337.65625 L 338.917969 337.601562 L 338.875 337.574219 L 338.832031 337.550781 L 338.785156 337.527344 L 338.742188 337.507812 L 338.695312 337.488281 L 338.648438 337.472656 L 338.601562 337.453125 L 338.550781 337.441406 L 338.503906 337.425781 L 338.453125 337.414062 L 338.402344 337.40625 L 338.347656 337.398438 L 338.246094 337.382812 L 338.199219 337.378906 L 338.148438 337.371094 L 338.054688 337.363281 L 338.007812 337.363281 L 337.960938 337.359375 L 337.433594 337.359375 L 337.433594 336.6875 L 337.945312 336.6875 L 338.03125 336.679688 L 338.171875 336.667969 L 338.214844 336.660156 L 338.261719 336.652344 L 338.3125 336.644531 L 338.359375 336.636719 L 338.402344 336.625 L 338.449219 336.609375 L 338.492188 336.597656 L 338.535156 336.582031 L 338.578125 336.5625 L 338.621094 336.546875 L 338.660156 336.527344 L 338.703125 336.503906 L 338.742188 336.480469 L 338.777344 336.457031 L 338.816406 336.429688 L 338.851562 336.402344 L 338.886719 336.371094 L 338.949219 336.308594 L 339.011719 336.238281 L 339.035156 336.199219 L 339.0625 336.160156 L 339.109375 336.074219 L 339.128906 336.027344 L 339.144531 335.980469 L 339.160156 335.929688 L 339.171875 335.878906 L 339.179688 335.820312 L 339.1875 335.765625 L 339.191406 335.707031 L 339.191406 335.644531 L 339.1875 335.550781 L 339.179688 335.457031 L 339.164062 335.371094 L 339.144531 335.289062 L 339.121094 335.210938 L 339.085938 335.136719 L 339.050781 335.066406 L 339.007812 335 L 338.957031 334.9375 L 338.902344 334.878906 L 338.84375 334.824219 L 338.777344 334.777344 L 338.707031 334.734375 L 338.632812 334.699219 L 338.550781 334.667969 L 338.460938 334.640625 L 338.371094 334.621094 L 338.269531 334.605469 L 338.167969 334.597656 L 338.058594 334.59375 L 337.957031 334.597656 L 337.859375 334.605469 L 337.769531 334.617188 L 337.679688 334.636719 L 337.59375 334.660156 L 337.511719 334.691406 L 337.4375 334.722656 L 337.363281 334.761719 L 337.292969 334.808594 L 337.226562 334.859375 L 337.167969 334.914062 L 337.113281 334.972656 L 337.0625 335.035156 L 337.019531 335.101562 L 336.980469 335.171875 L 336.945312 335.25 L 336.917969 335.328125 L 336.894531 335.414062 L 336.875 335.503906 L 336.863281 335.597656 L 336.085938 335.535156 L 336.09375 335.457031 L 336.109375 335.378906 L 336.125 335.304688 L 336.140625 335.234375 L 336.1875 335.09375 L 336.210938 335.027344 L 336.238281 334.964844 L 336.269531 334.902344 L 336.304688 334.839844 L 336.339844 334.78125 L 336.375 334.726562 L 336.414062 334.671875 L 336.5 334.570312 L 336.542969 334.523438 L 336.589844 334.476562 L 336.636719 334.433594 L 336.6875 334.390625 L 336.738281 334.351562 L 336.792969 334.3125 L 336.847656 334.277344 L 336.90625 334.242188 L 336.960938 334.207031 L 337.023438 334.179688 L 337.082031 334.152344 L 337.148438 334.125 L 337.210938 334.101562 L 337.277344 334.078125 L 337.34375 334.058594 L 337.414062 334.039062 L 337.480469 334.023438 L 337.550781 334.007812 L 337.621094 333.996094 L 337.695312 333.984375 L 337.765625 333.976562 L 337.839844 333.96875 L 337.988281 333.960938 L 338.164062 333.960938 L 338.261719 333.964844 L 338.449219 333.980469 L 338.539062 333.992188 L 338.625 334.007812 L 338.707031 334.023438 L 338.863281 334.0625 L 338.9375 334.089844 L 339.007812 334.113281 L 339.078125 334.140625 L 339.144531 334.171875 L 339.207031 334.203125 L 339.269531 334.238281 L 339.328125 334.273438 L 339.382812 334.308594 L 339.4375 334.347656 L 339.488281 334.390625 L 339.582031 334.476562 L 339.621094 334.519531 L 339.664062 334.566406 L 339.769531 334.71875 L 339.800781 334.769531 L 339.828125 334.824219 L 339.851562 334.882812 L 339.875 334.9375 L 339.894531 334.996094 L 339.914062 335.058594 L 339.929688 335.117188 L 339.945312 335.179688 L 339.96875 335.304688 L 339.976562 335.367188 L 339.980469 335.429688 L 339.988281 335.5625 L 339.984375 335.613281 L 339.984375 335.667969 L 339.976562 335.769531 L 339.960938 335.871094 L 339.949219 335.917969 L 339.941406 335.964844 L 339.925781 336.015625 L 339.914062 336.0625 L 339.898438 336.105469 L 339.878906 336.152344 L 339.863281 336.195312 L 339.84375 336.238281 L 339.820312 336.28125 L 339.796875 336.320312 L 339.769531 336.363281 L 339.746094 336.402344 L 339.714844 336.441406 L 339.6875 336.476562 L 339.652344 336.515625 L 339.621094 336.550781 L 339.585938 336.582031 L 339.546875 336.617188 L 339.46875 336.679688 L 339.425781 336.710938 L 339.382812 336.738281 L 339.335938 336.769531 L 339.289062 336.796875 L 339.242188 336.820312 L 339.191406 336.847656 L 339.140625 336.871094 L 339.085938 336.890625 L 339.027344 336.914062 L 338.972656 336.933594 L 338.910156 336.949219 L 338.847656 336.96875 L 338.785156 336.984375 L 338.71875 336.996094 L 338.71875 337.015625 L 338.789062 337.023438 L 338.929688 337.046875 L 338.996094 337.058594 L 339.058594 337.074219 L 339.183594 337.113281 L 339.242188 337.132812 L 339.300781 337.15625 L 339.355469 337.183594 L 339.40625 337.207031 L 339.460938 337.234375 L 339.507812 337.261719 L 339.601562 337.324219 L 339.6875 337.386719 L 339.765625 337.457031 L 339.835938 337.535156 L 339.898438 337.613281 L 339.929688 337.65625 L 339.957031 337.699219 L 340.003906 337.785156 L 340.027344 337.832031 L 340.046875 337.878906 L 340.0625 337.925781 L 340.082031 337.972656 L 340.097656 338.023438 L 340.109375 338.070312 L 340.132812 338.171875 L 340.140625 338.222656 L 340.144531 338.273438 L 340.148438 338.328125 L 340.152344 338.378906 Z M 340.152344 338.433594 "/>
<path fill-rule="nonzero" fill="rgb(30.196078%, 30.196078%, 30.196078%)" fill-opacity="1" d="M 478.933594 338.734375 L 478.933594 340.105469 L 478.203125 340.105469 L 478.203125 338.734375 L 475.351562 338.734375 L 475.351562 338.132812 L 478.121094 334.050781 L 478.933594 334.050781 L 478.933594 338.125 L 479.785156 338.125 L 479.785156 338.734375 Z M 478.203125 334.921875 L 478.203125 334.925781 L 478.199219 334.933594 L 478.195312 334.9375 L 478.1875 334.953125 L 478.183594 334.964844 L 478.179688 334.972656 L 478.171875 334.984375 L 478.167969 334.996094 L 478.144531 335.03125 L 478.140625 335.046875 L 478.132812 335.058594 L 478.125 335.074219 L 478.117188 335.085938 L 478.109375 335.101562 L 478.101562 335.113281 L 478.089844 335.128906 L 478.058594 335.191406 L 478.046875 335.207031 L 478.03125 335.238281 L 478.019531 335.253906 L 478.011719 335.273438 L 478.003906 335.289062 L 477.992188 335.304688 L 477.976562 335.335938 L 477.96875 335.347656 L 477.960938 335.363281 L 477.914062 335.433594 L 476.363281 337.71875 L 476.355469 337.734375 L 476.347656 337.742188 L 476.34375 337.75 L 476.335938 337.757812 L 476.332031 337.769531 L 476.324219 337.777344 L 476.316406 337.789062 L 476.308594 337.796875 L 476.261719 337.867188 L 476.25 337.878906 L 476.210938 337.9375 L 476.199219 337.949219 L 476.191406 337.960938 L 476.183594 337.96875 L 476.167969 337.992188 L 476.15625 338.003906 L 476.132812 338.039062 L 476.125 338.046875 L 476.109375 338.070312 L 476.085938 338.09375 L 476.082031 338.101562 L 476.074219 338.109375 L 476.070312 338.117188 L 476.0625 338.125 L 478.203125 338.125 Z M 478.203125 334.921875 "/>
<path fill-rule="nonzero" fill="rgb(0%, 0%, 0%)" fill-opacity="1" d="M 269.894531 352.238281 L 268.332031 349.851562 L 266.757812 352.238281 L 265.714844 352.238281 L 267.785156 349.25 L 265.8125 346.425781 L 266.882812 346.425781 L 268.332031 348.6875 L 269.769531 346.425781 L 270.851562 346.425781 L 268.878906 349.242188 L 270.972656 352.238281 Z M 269.894531 352.238281 "/>
<path fill-rule="nonzero" fill="rgb(0%, 0%, 0%)" fill-opacity="1" d="M 10.113281 170.511719 L 10.246094 170.511719 L 10.375 170.515625 L 10.5 170.519531 L 10.625 170.527344 L 10.75 170.539062 L 10.871094 170.550781 L 10.988281 170.5625 L 11.105469 170.578125 L 11.222656 170.597656 L 11.332031 170.617188 L 11.445312 170.640625 L 11.65625 170.695312 L 11.757812 170.726562 L 11.855469 170.761719 L 11.949219 170.800781 L 12.039062 170.839844 L 12.128906 170.882812 L 12.214844 170.929688 L 12.296875 170.976562 L 12.375 171.027344 L 12.449219 171.082031 L 12.523438 171.140625 L 12.65625 171.265625 L 12.71875 171.335938 L 12.773438 171.40625 L 12.828125 171.480469 L 12.882812 171.558594 L 12.929688 171.640625 L 12.972656 171.722656 L 13.011719 171.808594 L 13.074219 171.996094 L 13.097656 172.09375 L 13.117188 172.199219 L 13.132812 172.304688 L 13.144531 172.414062 L 13.152344 172.53125 L 13.15625 172.648438 L 13.152344 172.773438 L 13.144531 172.890625 L 13.132812 173.007812 L 13.117188 173.121094 L 13.09375 173.234375 L 13.070312 173.339844 L 13.039062 173.445312 L 13.003906 173.546875 L 12.964844 173.644531 L 12.917969 173.738281 L 12.867188 173.828125 L 12.8125 173.917969 L 12.75 174 L 12.679688 174.078125 L 12.605469 174.152344 L 12.527344 174.21875 L 12.441406 174.285156 L 12.347656 174.34375 L 12.25 174.402344 L 12.144531 174.453125 L 12.144531 174.480469 L 12.148438 174.480469 L 12.152344 174.476562 L 12.242188 174.476562 L 12.257812 174.472656 L 12.316406 174.472656 L 12.339844 174.46875 L 12.507812 174.46875 L 12.535156 174.464844 L 12.746094 174.464844 L 12.777344 174.460938 L 12.964844 174.460938 L 12.996094 174.457031 L 15.328125 174.457031 L 15.328125 175.425781 L 8.175781 175.425781 L 8.136719 175.429688 L 7.871094 175.429688 L 7.835938 175.433594 L 7.703125 175.433594 L 7.671875 175.4375 L 7.578125 175.4375 L 7.550781 175.441406 L 7.496094 175.441406 L 7.46875 175.445312 L 7.398438 175.445312 L 7.375 175.449219 L 7.316406 175.449219 L 7.300781 175.453125 L 7.269531 175.453125 L 7.257812 175.457031 L 7.234375 175.457031 L 7.234375 174.523438 L 7.238281 174.523438 L 7.246094 174.519531 L 7.273438 174.519531 L 7.285156 174.515625 L 7.3125 174.515625 L 7.328125 174.511719 L 7.367188 174.511719 L 7.390625 174.507812 L 7.410156 174.507812 L 7.433594 174.503906 L 7.457031 174.503906 L 7.480469 174.5 L 7.53125 174.5 L 7.558594 174.496094 L 7.585938 174.496094 L 7.613281 174.492188 L 7.640625 174.492188 L 7.667969 174.488281 L 7.722656 174.488281 L 7.753906 174.484375 L 7.785156 174.484375 L 7.8125 174.480469 L 7.875 174.480469 L 7.90625 174.476562 L 7.9375 174.476562 L 7.96875 174.472656 L 8.054688 174.472656 L 8.085938 174.46875 L 8.171875 174.46875 L 8.171875 174.449219 L 8.117188 174.421875 L 8.0625 174.390625 L 7.960938 174.335938 L 7.820312 174.242188 L 7.777344 174.207031 L 7.738281 174.175781 L 7.621094 174.070312 L 7.585938 174.035156 L 7.550781 173.996094 L 7.519531 173.957031 L 7.484375 173.917969 L 7.457031 173.878906 L 7.375 173.75 L 7.351562 173.703125 L 7.328125 173.660156 L 7.304688 173.613281 L 7.285156 173.566406 L 7.265625 173.515625 L 7.246094 173.46875 L 7.230469 173.417969 L 7.21875 173.367188 L 7.203125 173.3125 L 7.191406 173.261719 L 7.179688 173.207031 L 7.148438 172.972656 L 7.144531 172.910156 L 7.140625 172.84375 L 7.136719 172.78125 L 7.132812 172.714844 L 7.132812 172.648438 L 7.140625 172.414062 L 7.152344 172.304688 L 7.167969 172.199219 L 7.1875 172.09375 L 7.210938 171.996094 L 7.238281 171.902344 L 7.269531 171.808594 L 7.308594 171.722656 L 7.347656 171.640625 L 7.394531 171.558594 L 7.441406 171.480469 L 7.492188 171.40625 L 7.546875 171.335938 L 7.609375 171.265625 L 7.734375 171.140625 L 7.804688 171.082031 L 7.878906 171.027344 L 7.957031 170.976562 L 8.035156 170.929688 L 8.117188 170.882812 L 8.203125 170.839844 L 8.382812 170.761719 L 8.480469 170.726562 L 8.578125 170.695312 L 8.679688 170.667969 L 8.785156 170.640625 L 8.894531 170.617188 L 9.121094 170.578125 L 9.234375 170.5625 L 9.351562 170.550781 L 9.472656 170.539062 L 9.597656 170.527344 L 9.722656 170.519531 L 9.980469 170.511719 Z M 10.136719 171.527344 L 9.925781 171.527344 L 9.824219 171.53125 L 9.726562 171.535156 L 9.628906 171.542969 L 9.441406 171.558594 L 9.351562 171.566406 L 9.179688 171.589844 L 9.097656 171.605469 L 8.941406 171.636719 L 8.867188 171.65625 L 8.792969 171.679688 L 8.722656 171.703125 L 8.65625 171.726562 L 8.59375 171.753906 L 8.53125 171.785156 L 8.414062 171.847656 L 8.359375 171.882812 L 8.308594 171.917969 L 8.261719 171.957031 L 8.214844 172 L 8.171875 172.042969 L 8.132812 172.085938 L 8.097656 172.132812 L 8.0625 172.183594 L 8.03125 172.234375 L 7.976562 172.34375 L 7.953125 172.40625 L 7.933594 172.46875 L 7.917969 172.53125 L 7.90625 172.597656 L 7.894531 172.667969 L 7.886719 172.742188 L 7.882812 172.816406 L 7.878906 172.894531 L 7.882812 172.960938 L 7.882812 173.023438 L 7.886719 173.085938 L 7.894531 173.148438 L 7.902344 173.207031 L 7.914062 173.269531 L 7.9375 173.386719 L 7.953125 173.445312 L 7.972656 173.503906 L 7.992188 173.558594 L 8.015625 173.613281 L 8.042969 173.667969 L 8.070312 173.71875 L 8.140625 173.820312 L 8.179688 173.867188 L 8.222656 173.914062 L 8.269531 173.957031 L 8.320312 174.003906 L 8.375 174.042969 L 8.492188 174.121094 L 8.558594 174.15625 L 8.628906 174.191406 L 8.777344 174.253906 L 8.859375 174.28125 L 8.945312 174.308594 L 9.035156 174.335938 L 9.128906 174.359375 L 9.226562 174.378906 L 9.332031 174.398438 L 9.441406 174.414062 L 9.554688 174.425781 L 9.675781 174.4375 L 9.800781 174.449219 L 9.933594 174.453125 L 10.070312 174.457031 L 10.332031 174.457031 L 10.566406 174.449219 L 10.675781 174.441406 L 10.78125 174.433594 L 10.886719 174.421875 L 10.984375 174.410156 L 11.078125 174.394531 L 11.171875 174.375 L 11.34375 174.335938 L 11.421875 174.3125 L 11.5 174.285156 L 11.574219 174.261719 L 11.644531 174.230469 L 11.710938 174.199219 L 11.773438 174.167969 L 11.835938 174.132812 L 11.945312 174.0625 L 12.046875 173.976562 L 12.089844 173.933594 L 12.132812 173.886719 L 12.171875 173.839844 L 12.210938 173.789062 L 12.242188 173.738281 L 12.273438 173.683594 L 12.328125 173.574219 L 12.347656 173.511719 L 12.367188 173.453125 L 12.386719 173.390625 L 12.398438 173.328125 L 12.414062 173.261719 L 12.421875 173.191406 L 12.429688 173.125 L 12.4375 173.054688 L 12.4375 172.980469 L 12.441406 172.90625 L 12.433594 172.75 L 12.425781 172.675781 L 12.414062 172.605469 L 12.402344 172.539062 L 12.382812 172.472656 L 12.363281 172.410156 L 12.339844 172.351562 L 12.3125 172.292969 L 12.285156 172.242188 L 12.253906 172.1875 L 12.214844 172.136719 L 12.179688 172.089844 L 12.136719 172.042969 L 12.09375 172 L 12.046875 171.957031 L 12 171.917969 L 11.890625 171.847656 L 11.773438 171.785156 L 11.710938 171.753906 L 11.644531 171.726562 L 11.578125 171.703125 L 11.503906 171.679688 L 11.433594 171.65625 L 11.355469 171.636719 L 11.199219 171.605469 L 11.113281 171.589844 L 11.027344 171.578125 L 10.9375 171.566406 L 10.65625 171.542969 L 10.554688 171.535156 L 10.351562 171.527344 Z M 10.136719 171.527344 "/>
<path fill-rule="nonzero" fill="rgb(0%, 0%, 0%)" fill-opacity="1" d="M 10.113281 168.570312 L 10.3125 168.570312 L 10.5 168.5625 L 10.59375 168.554688 L 10.773438 168.539062 L 10.863281 168.527344 L 10.949219 168.515625 L 11.03125 168.503906 L 11.117188 168.484375 L 11.195312 168.46875 L 11.273438 168.449219 L 11.351562 168.425781 L 11.425781 168.402344 L 11.496094 168.375 L 11.5625 168.347656 L 11.632812 168.320312 L 11.695312 168.289062 L 11.757812 168.253906 L 11.875 168.183594 L 11.925781 168.140625 L 11.976562 168.101562 L 12.027344 168.054688 L 12.070312 168.011719 L 12.113281 167.960938 L 12.191406 167.859375 L 12.226562 167.804688 L 12.257812 167.746094 L 12.285156 167.683594 L 12.308594 167.621094 L 12.332031 167.554688 L 12.351562 167.488281 L 12.367188 167.414062 L 12.378906 167.34375 L 12.386719 167.265625 L 12.390625 167.1875 L 12.390625 167.003906 L 12.382812 166.90625 L 12.367188 166.8125 L 12.347656 166.71875 L 12.292969 166.546875 L 12.214844 166.390625 L 12.164062 166.316406 L 12.113281 166.246094 L 12.054688 166.179688 L 11.988281 166.117188 L 11.917969 166.0625 L 11.839844 166.011719 L 11.757812 165.964844 L 11.667969 165.925781 L 11.574219 165.890625 L 11.472656 165.859375 L 11.367188 165.835938 L 11.253906 165.816406 L 11.316406 164.839844 L 11.390625 164.851562 L 11.460938 164.863281 L 11.601562 164.894531 L 11.671875 164.914062 L 11.738281 164.9375 L 11.808594 164.960938 L 11.875 164.988281 L 11.945312 165.015625 L 12.011719 165.046875 L 12.078125 165.082031 L 12.140625 165.117188 L 12.265625 165.195312 L 12.324219 165.238281 L 12.382812 165.285156 L 12.4375 165.332031 L 12.492188 165.382812 L 12.597656 165.488281 L 12.644531 165.542969 L 12.691406 165.601562 L 12.738281 165.664062 L 12.78125 165.726562 L 12.824219 165.792969 L 12.902344 165.933594 L 12.972656 166.082031 L 13.003906 166.160156 L 13.058594 166.324219 L 13.082031 166.410156 L 13.101562 166.496094 L 13.117188 166.589844 L 13.128906 166.679688 L 13.140625 166.777344 L 13.148438 166.875 L 13.15625 167.078125 L 13.152344 167.214844 L 13.144531 167.34375 L 13.132812 167.46875 L 13.117188 167.589844 L 13.097656 167.710938 L 13.070312 167.824219 L 13.042969 167.933594 L 13.007812 168.039062 L 12.96875 168.140625 L 12.921875 168.238281 L 12.875 168.332031 L 12.824219 168.421875 L 12.769531 168.507812 L 12.710938 168.59375 L 12.585938 168.75 L 12.445312 168.890625 L 12.367188 168.957031 L 12.289062 169.019531 L 12.207031 169.074219 L 12.121094 169.128906 L 12.03125 169.179688 L 11.941406 169.226562 L 11.847656 169.273438 L 11.75 169.3125 L 11.648438 169.351562 L 11.546875 169.386719 L 11.441406 169.417969 L 11.332031 169.449219 L 11.222656 169.472656 L 11.109375 169.496094 L 10.875 169.535156 L 10.757812 169.546875 L 10.515625 169.570312 L 10.390625 169.578125 L 10.265625 169.582031 L 10.019531 169.582031 L 9.90625 169.578125 L 9.796875 169.574219 L 9.585938 169.558594 L 9.484375 169.546875 L 9.386719 169.535156 L 9.289062 169.519531 L 9.195312 169.503906 L 9.015625 169.464844 L 8.929688 169.441406 L 8.84375 169.421875 L 8.761719 169.394531 L 8.683594 169.371094 L 8.605469 169.34375 L 8.457031 169.28125 L 8.386719 169.25 L 8.253906 169.179688 L 8.191406 169.144531 L 8.066406 169.066406 L 7.902344 168.9375 L 7.851562 168.894531 L 7.804688 168.847656 L 7.757812 168.804688 L 7.710938 168.753906 L 7.667969 168.707031 L 7.625 168.65625 L 7.585938 168.609375 L 7.550781 168.558594 L 7.515625 168.503906 L 7.480469 168.453125 L 7.449219 168.402344 L 7.417969 168.347656 L 7.363281 168.238281 L 7.316406 168.121094 L 7.292969 168.066406 L 7.253906 167.949219 L 7.234375 167.886719 L 7.21875 167.828125 L 7.207031 167.769531 L 7.191406 167.707031 L 7.179688 167.644531 L 7.167969 167.585938 L 7.144531 167.398438 L 7.140625 167.335938 L 7.132812 167.277344 L 7.132812 167.214844 L 7.128906 167.152344 L 7.128906 166.992188 L 7.132812 166.898438 L 7.140625 166.804688 L 7.148438 166.714844 L 7.160156 166.628906 L 7.175781 166.542969 L 7.195312 166.457031 L 7.214844 166.375 L 7.261719 166.21875 L 7.289062 166.144531 L 7.320312 166.070312 L 7.351562 166 L 7.386719 165.929688 L 7.421875 165.863281 L 7.5 165.738281 L 7.585938 165.621094 L 7.632812 165.5625 L 7.679688 165.507812 L 7.78125 165.40625 L 7.832031 165.359375 L 7.941406 165.265625 L 8.117188 165.148438 L 8.179688 165.113281 L 8.246094 165.078125 L 8.308594 165.046875 L 8.441406 164.992188 L 8.511719 164.964844 L 8.578125 164.941406 L 8.71875 164.902344 L 8.789062 164.886719 L 8.863281 164.871094 L 8.9375 165.863281 L 8.84375 165.882812 L 8.753906 165.902344 L 8.667969 165.929688 L 8.582031 165.960938 L 8.503906 165.996094 L 8.429688 166.039062 L 8.359375 166.082031 L 8.292969 166.132812 L 8.230469 166.1875 L 8.171875 166.246094 L 8.117188 166.308594 L 8.066406 166.378906 L 8.023438 166.453125 L 7.988281 166.53125 L 7.957031 166.617188 L 7.929688 166.707031 L 7.910156 166.800781 L 7.898438 166.902344 L 7.886719 167.007812 L 7.886719 167.199219 L 7.890625 167.277344 L 7.90625 167.425781 L 7.921875 167.496094 L 7.953125 167.628906 L 7.976562 167.691406 L 8.023438 167.808594 L 8.054688 167.863281 L 8.117188 167.964844 L 8.195312 168.058594 L 8.238281 168.101562 L 8.285156 168.144531 L 8.332031 168.183594 L 8.382812 168.21875 L 8.4375 168.253906 L 8.496094 168.289062 L 8.554688 168.320312 L 8.679688 168.375 L 8.75 168.402344 L 8.820312 168.425781 L 8.894531 168.449219 L 8.96875 168.46875 L 9.050781 168.484375 L 9.132812 168.503906 L 9.304688 168.527344 L 9.394531 168.539062 L 9.488281 168.546875 L 9.585938 168.554688 L 9.6875 168.5625 L 9.789062 168.566406 L 9.894531 168.570312 Z M 10.113281 168.570312 "/>
<path fill-rule="nonzero" fill="rgb(0%, 0%, 0%)" fill-opacity="1" d="M 13.046875 163.710938 L 12.226562 163.710938 L 12.226562 161.78125 L 6.402344 161.78125 L 7.621094 163.492188 L 6.710938 163.492188 L 5.480469 161.703125 L 5.480469 160.8125 L 12.226562 160.8125 L 12.226562 158.96875 L 13.046875 158.96875 Z M 13.046875 163.710938 "/>
</svg>
